<svg width="118" height="13" viewBox="0 0 118 13" fill="none" xmlns="http://www.w3.org/2000/svg">
<path d="M9.6 0.799999L6.896 7.68H6.864L4.16 0.799999H2.8L0.08 12H1.856L3.712 4H3.744L6.256 10.288H7.504L10.016 4H10.048L11.904 12H13.68L10.96 0.799999H9.6ZM21.8174 0.799999V7.632C21.8174 9.44 20.6334 10.512 19.0654 10.512C17.4974 10.512 16.3134 9.44 16.3134 7.632V0.799999H14.5694V7.68C14.5694 10.464 16.3294 12.24 19.0654 12.24C21.8014 12.24 23.5614 10.464 23.5614 7.68V0.799999H21.8174ZM28.6756 0.559999C26.7076 0.559999 25.5396 1.616 25.5396 3.264C25.5396 4.416 26.1156 5.232 27.0756 5.984L28.9796 7.488C29.7796 8.112 30.1636 8.576 30.1636 9.2C30.1636 9.952 29.5876 10.544 28.3876 10.544C27.2996 10.544 26.2276 10.048 25.5076 9.632L24.7556 11.2C25.6356 11.76 26.9476 12.24 28.3716 12.24C30.4996 12.24 31.9556 11.152 31.9556 9.104C31.9556 7.824 31.3796 6.944 30.2276 6.064L28.2276 4.528C27.6356 4.064 27.3476 3.712 27.3476 3.2C27.3476 2.608 27.7316 2.24 28.6276 2.24C29.3796 2.24 30.2116 2.512 30.8836 2.896L31.6356 1.312C30.8516 0.912 29.8116 0.559999 28.6756 0.559999ZM33.6356 0.799999V12H35.3316V0.799999H33.6356ZM43.0131 12.24C44.6931 12.24 45.9411 11.744 46.9651 11.008L45.9411 9.552C45.2851 10.032 44.2771 10.544 42.9491 10.544C40.5971 10.544 38.8371 8.928 38.8371 6.4C38.8371 3.872 40.5971 2.256 42.9491 2.256C44.2771 2.256 45.2851 2.768 45.9411 3.248L46.9651 1.792C45.9411 1.056 44.6931 0.559999 43.0131 0.559999C39.4611 0.559999 37.0131 2.912 37.0131 6.4C37.0131 9.888 39.4611 12.24 43.0131 12.24ZM53.12 0.799999V12H59.648V10.4H54.784V0.799999H53.12ZM62.5184 6.592H66.8864V5.024H62.5184V2.368H67.2544V0.799999H60.8544V12H67.3344V10.432H62.5184V6.592ZM74.6906 7.376H78.2106C78.0826 8.864 76.8666 10.544 74.4186 10.544C71.9226 10.544 70.2746 8.816 70.2746 6.416C70.2746 4.048 71.8586 2.256 74.3066 2.256C75.7146 2.256 76.8346 2.8 77.5546 3.456L78.6906 2.064C77.7306 1.248 76.2906 0.559999 74.3866 0.559999C70.8506 0.559999 68.4506 2.992 68.4506 6.432C68.4506 9.968 70.9946 12.24 74.3706 12.24C78.1786 12.24 80.0026 9.36 80.0026 6.48V5.808H74.6906V7.376ZM83.1903 6.592H87.5583V5.024H83.1903V2.368H87.9263V0.799999H81.5263V12H88.0063V10.432H83.1903V6.592ZM97.1188 0.799999V9.168H97.0868L91.5828 0.799999H89.8388V12H91.5028V3.632H91.5348L97.0388 12H98.7828V0.799999H97.1188ZM101.026 0.799999V12H104.642C107.858 12 110.274 9.888 110.274 6.4C110.274 2.912 107.858 0.799999 104.642 0.799999H101.026ZM104.626 2.368C106.818 2.368 108.45 3.76 108.45 6.4C108.45 9.04 106.818 10.432 104.626 10.432H102.69V2.368H104.626ZM114.676 0.559999C112.708 0.559999 111.54 1.616 111.54 3.264C111.54 4.416 112.116 5.232 113.076 5.984L114.98 7.488C115.78 8.112 116.164 8.576 116.164 9.2C116.164 9.952 115.588 10.544 114.388 10.544C113.3 10.544 112.228 10.048 111.508 9.632L110.756 11.2C111.636 11.76 112.948 12.24 114.372 12.24C116.5 12.24 117.956 11.152 117.956 9.104C117.956 7.824 117.38 6.944 116.228 6.064L114.228 4.528C113.636 4.064 113.348 3.712 113.348 3.2C113.348 2.608 113.732 2.24 114.628 2.24C115.38 2.24 116.212 2.512 116.884 2.896L117.636 1.312C116.852 0.912 115.812 0.559999 114.676 0.559999Z" fill="#F1F0F0"/>
</svg>
